<svg width="100%" height="100%" viewBox="0 0 100 100" version="1.1" xmlns="http://www.w3.org/2000/svg" xmlns:xlink="http://www.w3.org/1999/xlink" xml:space="preserve" style="fill-rule:evenodd;clip-rule:evenodd;stroke-linejoin:round;stroke-miterlimit:2;">
    <style>
        <![CDATA[
        @media (prefers-color-scheme: light) {
            :root { filter: none; }
        }
        @media (prefers-color-scheme: dark) {
            :root { filter: invert(100%); }
        }
        ]]>
    </style>
    <g transform="matrix(1,0,0,1,5.16822e-05,0.124416)">
        <g transform="matrix(0.990601,0,0,0.990601,-1.00175,0.68461)">
            <g transform="matrix(0.176638,0,-0.002993,0.171469,-25.2348,-43.8446)">
                <path d="M201.406,839.485L163.876,839.666L387.545,680.513L423.047,680.616L201.406,839.485Z" style="fill:rgb(17,17,17);"/>
            </g>
            <g transform="matrix(0.176638,0,-0.002993,0.171469,-11.5937,-43.8446)">
                <path d="M201.406,839.485L163.876,839.666L387.545,680.513L423.047,680.616L201.406,839.485Z" style="fill:rgb(17,17,17);"/>
            </g>
            <g transform="matrix(0.176638,0,-0.002993,0.171469,2.04739,-43.8446)">
                <path d="M201.406,839.485L163.876,839.666L387.545,680.513L423.047,680.616L201.406,839.485Z" style="fill:rgb(17,17,17);"/>
            </g>
            <g transform="matrix(0.176638,0,-0.002993,0.171469,15.6885,-43.8446)">
                <path d="M201.406,839.485L163.876,839.666L387.545,680.513L423.047,680.616L201.406,839.485Z" style="fill:rgb(17,17,17);"/>
            </g>
            <g transform="matrix(0.176638,0,-0.002993,0.171469,29.3296,-43.8446)">
                <path d="M201.406,839.485L163.876,839.666L387.545,680.513L423.047,680.616L201.406,839.485Z" style="fill:rgb(17,17,17);"/>
            </g>
        </g>
        <g transform="matrix(0.116008,0,0,0.120606,-8.00381,-14.9589)">
            <rect x="326" y="123" width="605" height="605" style="fill:rgb(235,235,235);"/>
        </g>
        <g transform="matrix(5.28851,0,0,4.70286,205.37,1473.59)">
            <path d="M-30.748,-309.376C-30.712,-308.848 -30.736,-308.332 -30.748,-307.768C-30.664,-307.768 -30.556,-307.78 -30.424,-307.78C-30.124,-307.78 -29.932,-307.6 -29.908,-307.108C-29.872,-306.364 -29.884,-304.9 -29.908,-304.132C-29.92,-303.736 -30.052,-303.532 -30.424,-303.532C-30.52,-303.532 -30.628,-303.532 -30.736,-303.544C-30.7,-302.98 -30.7,-302.404 -30.736,-301.84C-30.352,-301.876 -27.676,-301.876 -27.256,-301.84C-27.268,-302.38 -27.292,-303.004 -27.256,-303.544C-27.412,-303.532 -27.568,-303.532 -27.748,-303.532C-28.096,-303.532 -28.252,-303.784 -28.264,-304.156C-28.276,-304.636 -28.276,-305.056 -28.276,-305.62C-28.276,-306.112 -28.324,-306.736 -28.408,-307.3L-28.3,-307.348C-27.856,-306.244 -27.412,-305.044 -27.16,-304.024C-26.716,-304.06 -26.452,-304.048 -26.164,-304.036C-25.936,-304.816 -25.468,-306.136 -24.988,-307.36L-24.868,-307.348C-24.976,-306.232 -25.012,-305.26 -25.012,-304.144C-25.012,-303.772 -25.228,-303.532 -25.576,-303.532C-25.72,-303.532 -25.84,-303.532 -26.044,-303.544C-26.032,-303.004 -26.008,-302.404 -26.044,-301.84C-25.684,-301.876 -22.924,-301.876 -22.432,-301.84C-22.468,-302.14 -22.468,-303.1 -22.432,-303.52C-22.48,-303.508 -22.66,-303.508 -22.672,-303.508C-23.116,-303.508 -23.26,-303.736 -23.272,-304.12C-23.296,-304.96 -23.26,-306.448 -23.224,-307.276C-23.212,-307.624 -22.912,-307.792 -22.612,-307.792C-22.528,-307.792 -22.468,-307.792 -22.372,-307.78C-22.42,-308.368 -22.408,-308.812 -22.396,-309.376C-22.792,-309.34 -25.06,-309.376 -25.444,-309.376C-25.54,-308.944 -26.068,-307.48 -26.524,-306.532C-26.968,-307.432 -27.484,-308.86 -27.544,-309.376C-27.988,-309.34 -30.316,-309.34 -30.748,-309.376Z" style="fill:rgb(17,17,17);fill-rule:nonzero;"/>
        </g>
        <g transform="matrix(0.111767,0,0,0.126572,-14.3905,-12.9203)">
            <path d="M128.754,837.945L396.407,676.587L396.407,101.8L128.754,263.158L128.754,837.945Z" style="fill:rgb(17,17,17);"/>
        </g>
    </g>
</svg>