<svg width="100%" height="20px" viewBox="0 0 18 4" version="1.1" xmlns="http://www.w3.org/2000/svg" xmlns:xlink="http://www.w3.org/1999/xlink" xml:space="preserve" xmlns:serif="http://www.serif.com/" style="fill-rule:evenodd;clip-rule:evenodd;stroke-linejoin:round;stroke-miterlimit:2;">
    <g transform="matrix(2.11055,0,0,2.10614,1.3135,-6.24855)">
        <g>
            <g transform="matrix(1.70428,0,0,1.70428,-1.35989,-1.99568)">
                <g transform="matrix(0.490971,0,0,0.492,0.430498,2.9118)">
                    <path d="M0.492,1.4L0.714,1.4L0.714,0.186L1.188,0.186L1.188,0L0.016,0L0.016,0.186L0.492,0.186L0.492,1.4Z" style="fill:rgb(186,28,38);fill-rule:nonzero;"/>
                </g>
                <g transform="matrix(0.490971,0,0,0.492,0.430498,2.9118)">
                    <path d="M1.342,1.4L1.55,1.4L1.55,0.824C1.55,0.68 1.644,0.562 1.786,0.562C1.92,0.562 1.986,0.654 1.986,0.816L1.986,1.4L2.194,1.4L2.194,0.788C2.194,0.544 2.064,0.398 1.844,0.398C1.702,0.398 1.6,0.47 1.546,0.564C1.55,0.532 1.55,0.504 1.55,0.476L1.55,0L1.342,0L1.342,1.4Z" style="fill:rgb(186,28,38);fill-rule:nonzero;"/>
                </g>
                <g transform="matrix(0.490971,0,0,0.492,0.430498,2.9118)">
                    <path d="M2.456,1.4L2.664,1.4L2.664,0.43L2.456,0.43L2.456,1.4ZM2.448,0.264L2.674,0.264L2.674,0.034L2.448,0.034L2.448,0.264Z" style="fill:rgb(186,28,38);fill-rule:nonzero;"/>
                </g>
                <g transform="matrix(0.490971,0,0,0.492,0.430498,2.9118)">
                    <path d="M3.3,1.432C3.55,1.432 3.704,1.296 3.704,1.116C3.704,0.95 3.582,0.864 3.4,0.828L3.266,0.802C3.15,0.78 3.102,0.746 3.102,0.678C3.102,0.602 3.174,0.556 3.278,0.556C3.398,0.556 3.474,0.616 3.484,0.722L3.692,0.722C3.682,0.522 3.53,0.398 3.284,0.398C3.054,0.398 2.896,0.522 2.896,0.688C2.896,0.844 3.012,0.938 3.204,0.974L3.336,1C3.446,1.022 3.5,1.062 3.5,1.132C3.5,1.218 3.42,1.274 3.298,1.274C3.156,1.274 3.076,1.196 3.07,1.072L2.862,1.072C2.872,1.29 3.032,1.432 3.3,1.432Z" style="fill:rgb(186,28,38);fill-rule:nonzero;"/>
                </g>
                <g transform="matrix(0.490971,0,0,0.492,0.430498,2.9118)">
                    <path d="M4.53,1.4L4.786,1.4L4.98,0.702C4.99,0.674 4.998,0.644 5.004,0.606C5.012,0.644 5.02,0.676 5.026,0.702L5.222,1.4L5.472,1.4L5.772,0.43L5.568,0.43L5.376,1.116C5.366,1.146 5.36,1.176 5.352,1.21C5.346,1.176 5.338,1.146 5.33,1.118L5.138,0.43L4.868,0.43L4.682,1.118C4.674,1.146 4.666,1.178 4.658,1.212C4.652,1.18 4.644,1.148 4.636,1.118L4.442,0.43L4.224,0.43L4.53,1.4Z" style="fill:rgb(186,28,38);fill-rule:nonzero;"/>
                </g>
                <g transform="matrix(0.490971,0,0,0.492,0.430498,2.9118)">
                    <path d="M6.202,1.432C6.358,1.432 6.46,1.366 6.51,1.268C6.508,1.298 6.506,1.326 6.506,1.356L6.506,1.4L6.7,1.4L6.7,0.796C6.7,0.548 6.572,0.398 6.304,0.398C6.056,0.398 5.904,0.548 5.894,0.738L6.106,0.738C6.112,0.628 6.186,0.556 6.318,0.556C6.426,0.556 6.494,0.618 6.494,0.704C6.494,0.758 6.468,0.786 6.392,0.796L6.218,0.822C6.028,0.848 5.868,0.93 5.868,1.134C5.868,1.32 6.026,1.432 6.202,1.432ZM6.082,1.128C6.082,1.034 6.164,0.99 6.278,0.968L6.388,0.946C6.446,0.936 6.482,0.924 6.498,0.904L6.498,1.028C6.498,1.176 6.39,1.276 6.248,1.276C6.156,1.276 6.082,1.222 6.082,1.128Z" style="fill:rgb(186,28,38);fill-rule:nonzero;"/>
                </g>
                <g transform="matrix(0.490971,0,0,0.492,0.430498,2.9118)">
                    <path d="M7.04,1.812L7.262,1.812L7.778,0.43L7.56,0.43L7.354,1.052C7.342,1.088 7.33,1.126 7.318,1.17C7.306,1.126 7.292,1.088 7.28,1.052L7.056,0.43L6.824,0.43L7.208,1.378L7.04,1.812Z" style="fill:rgb(186,28,38);fill-rule:nonzero;"/>
                </g>
            </g>
            <g transform="matrix(0.940169,0,0,0.942139,-1.43503,3.04045)">
                <path d="M8.828,1.322L9.1,1.322L9.724,0.7L9.1,0.076L8.828,0.076L9.346,0.592L8.29,0.592L8.29,0.806L9.346,0.806L8.828,1.322Z" style="fill:rgb(186,28,38);fill-rule:nonzero;"/>
            </g>
        </g>
    </g>
</svg>
